<svg width="186" height="56" viewBox="0 0 186 56" fill="none" xmlns="http://www.w3.org/2000/svg">
<rect width="186" height="56" fill="#F5F5F5"/>
<rect width="186" height="56" fill="#FCFBF6"/>
<path d="M41.376 16.928C42.6987 16.928 43.7227 17.0667 44.448 17.344C45.1733 17.6 45.792 17.8773 46.304 18.176C46.56 18.3253 46.7627 18.4427 46.912 18.528C47.0827 18.592 47.2427 18.624 47.392 18.624C47.6053 18.624 47.7547 18.5067 47.84 18.272C47.9467 18.0373 48.032 17.6853 48.096 17.216H48.832C48.8107 17.6427 48.7787 18.144 48.736 18.72C48.7147 19.296 48.6933 20.064 48.672 21.024C48.672 21.9627 48.672 23.2107 48.672 24.768H47.936C47.8507 23.616 47.584 22.5067 47.136 21.44C46.688 20.3733 46.0693 19.488 45.28 18.784C44.512 18.08 43.5627 17.728 42.432 17.728C41.4507 17.728 40.64 18.0053 40 18.56C39.36 19.0933 39.04 19.8613 39.04 20.864C39.04 21.6747 39.2427 22.3787 39.648 22.976C40.0533 23.552 40.6613 24.1387 41.472 24.736C42.304 25.3333 43.3493 26.0693 44.608 26.944C45.6107 27.6053 46.5067 28.2667 47.296 28.928C48.0853 29.5893 48.7147 30.336 49.184 31.168C49.6747 32 49.92 33.0027 49.92 34.176C49.92 35.584 49.536 36.7573 48.768 37.696C48 38.6133 46.9867 39.3067 45.728 39.776C44.4693 40.224 43.0933 40.448 41.6 40.448C40.2133 40.448 39.104 40.32 38.272 40.064C37.4613 39.808 36.768 39.5413 36.192 39.264C35.7227 38.9653 35.36 38.816 35.104 38.816C34.8907 38.816 34.7307 38.9333 34.624 39.168C34.5387 39.4027 34.464 39.7547 34.4 40.224H33.664C33.7067 39.6907 33.728 39.072 33.728 38.368C33.7493 37.6427 33.76 36.7147 33.76 35.584C33.7813 34.4533 33.792 33.0133 33.792 31.264H34.528C34.6133 32.7147 34.848 34.0693 35.232 35.328C35.6373 36.5867 36.2453 37.6107 37.056 38.4C37.888 39.168 38.9867 39.552 40.352 39.552C41.12 39.552 41.792 39.424 42.368 39.168C42.944 38.912 43.4027 38.5387 43.744 38.048C44.0853 37.536 44.256 36.9173 44.256 36.192C44.256 35.296 44.0533 34.5173 43.648 33.856C43.2427 33.1947 42.688 32.576 41.984 32C41.28 31.4027 40.4587 30.8053 39.52 30.208C38.5173 29.5467 37.5787 28.8747 36.704 28.192C35.8293 27.5093 35.1253 26.752 34.592 25.92C34.08 25.0667 33.824 24.0427 33.824 22.848C33.824 21.4827 34.176 20.3627 34.88 19.488C35.584 18.6133 36.512 17.9733 37.664 17.568C38.8373 17.1413 40.0747 16.928 41.376 16.928ZM58.5863 14.976V37.024C58.5863 37.92 58.7249 38.528 59.0023 38.848C59.2796 39.168 59.7596 39.328 60.4423 39.328V40C60.0369 39.9787 59.4289 39.9573 58.6183 39.936C57.8076 39.8933 56.9756 39.872 56.1223 39.872C55.2476 39.872 54.3623 39.8933 53.4663 39.936C52.5916 39.9573 51.9303 39.9787 51.4823 40V39.328C52.1863 39.328 52.6769 39.168 52.9543 38.848C53.2529 38.528 53.4023 37.92 53.4023 37.024V18.816C53.4023 17.856 53.2636 17.152 52.9863 16.704C52.7303 16.2347 52.2289 16 51.4823 16V15.328C52.1649 15.392 52.8263 15.424 53.4663 15.424C54.4476 15.424 55.3649 15.392 56.2183 15.328C57.0716 15.2427 57.8609 15.1253 58.5863 14.976ZM69.1463 23.424V24.064C68.4209 24.2347 67.6956 24.5653 66.9703 25.056C66.2449 25.5253 65.5089 26.1333 64.7623 26.88L62.9703 28.704L63.2263 28.192L68.5382 37.664C68.7516 38.0267 68.9649 38.3573 69.1783 38.656C69.4129 38.9547 69.6903 39.1787 70.0103 39.328V40C69.6903 39.9787 69.1783 39.9573 68.4743 39.936C67.7916 39.8933 67.0983 39.872 66.3943 39.872C65.5836 39.872 64.7623 39.8933 63.9303 39.936C63.1196 39.9573 62.5009 39.9787 62.0743 40V39.328C62.5009 39.328 62.7889 39.232 62.9383 39.04C63.0876 38.848 63.0663 38.5813 62.8743 38.24L59.8983 32.416C59.7063 32.0533 59.4929 31.8187 59.2583 31.712C59.0449 31.6053 58.7783 31.552 58.4583 31.552V30.944C58.8209 30.9227 59.1409 30.8693 59.4183 30.784C59.7169 30.6987 59.9943 30.5387 60.2503 30.304L62.6823 27.968C63.4289 27.264 63.8023 26.6347 63.8023 26.08C63.8236 25.504 63.5889 25.0347 63.0983 24.672C62.6289 24.3093 62.0209 24.1067 61.2743 24.064V23.424C61.8716 23.4453 62.5223 23.4667 63.2263 23.488C63.9516 23.5093 64.5703 23.52 65.0823 23.52C65.5089 23.52 65.9783 23.52 66.4903 23.52C67.0236 23.4987 67.5249 23.488 67.9943 23.488C68.4849 23.4667 68.8689 23.4453 69.1463 23.424ZM75.024 15.072C76.0267 15.072 76.8053 15.296 77.36 15.744C77.936 16.192 78.224 16.8427 78.224 17.696C78.224 18.5493 77.936 19.2 77.36 19.648C76.8053 20.096 76.0267 20.32 75.024 20.32C74.0213 20.32 73.232 20.096 72.656 19.648C72.1013 19.2 71.824 18.5493 71.824 17.696C71.824 16.8427 72.1013 16.192 72.656 15.744C73.232 15.296 74.0213 15.072 75.024 15.072ZM77.84 23.072V37.024C77.84 37.92 77.9787 38.528 78.256 38.848C78.5547 39.168 79.056 39.328 79.76 39.328V40C79.3333 39.9787 78.704 39.9573 77.872 39.936C77.04 39.8933 76.1973 39.872 75.344 39.872C74.4907 39.872 73.616 39.8933 72.72 39.936C71.8453 39.9573 71.184 39.9787 70.736 40V39.328C71.44 39.328 71.9307 39.168 72.208 38.848C72.5067 38.528 72.656 37.92 72.656 37.024V26.912C72.656 25.952 72.5173 25.248 72.24 24.8C71.9627 24.3307 71.4613 24.096 70.736 24.096V23.424C71.4187 23.488 72.08 23.52 72.72 23.52C73.68 23.52 74.5867 23.488 75.44 23.424C76.3147 23.3387 77.1147 23.2213 77.84 23.072ZM93.3358 22.976C94.2744 22.976 95.0211 23.0933 95.5758 23.328C96.1518 23.5627 96.5891 23.8613 96.8878 24.224C97.2291 24.6293 97.4744 25.152 97.6238 25.792C97.7944 26.432 97.8798 27.296 97.8798 28.384V37.024C97.8798 37.92 98.0184 38.528 98.2958 38.848C98.5944 39.168 99.0958 39.328 99.7998 39.328V40C99.3731 39.9787 98.7331 39.9573 97.8798 39.936C97.0478 39.8933 96.2371 39.872 95.4478 39.872C94.5731 39.872 93.7304 39.8933 92.9198 39.936C92.1091 39.9573 91.5011 39.9787 91.0958 40V39.328C91.6931 39.328 92.1091 39.168 92.3438 38.848C92.5784 38.528 92.6958 37.92 92.6958 37.024V26.848C92.6958 26.3573 92.6424 25.9413 92.5358 25.6C92.4291 25.2373 92.2478 24.9707 91.9918 24.8C91.7358 24.608 91.3731 24.512 90.9038 24.512C90.4131 24.512 89.9544 24.64 89.5278 24.896C89.1224 25.152 88.7918 25.5147 88.5358 25.984C88.3011 26.432 88.1838 26.944 88.1838 27.52V37.024C88.1838 37.92 88.3011 38.528 88.5358 38.848C88.7704 39.168 89.1864 39.328 89.7838 39.328V40C89.3784 39.9787 88.7918 39.9573 88.0238 39.936C87.2558 39.8933 86.4771 39.872 85.6878 39.872C84.8131 39.872 83.9384 39.8933 83.0638 39.936C82.1891 39.9573 81.5278 39.9787 81.0798 40V39.328C81.7838 39.328 82.2744 39.168 82.5518 38.848C82.8504 38.528 82.9998 37.92 82.9998 37.024V26.912C82.9998 25.952 82.8611 25.248 82.5838 24.8C82.3064 24.3307 81.8051 24.096 81.0798 24.096V23.424C81.7624 23.488 82.4238 23.52 83.0638 23.52C84.0238 23.52 84.9304 23.488 85.7838 23.424C86.6584 23.3387 87.4584 23.2213 88.1838 23.072V25.664C88.6958 24.6827 89.3891 23.9893 90.2638 23.584C91.1598 23.1787 92.1838 22.976 93.3358 22.976ZM114.93 14.976V37.024C114.93 37.92 115.069 38.528 115.346 38.848C115.623 39.168 116.103 39.328 116.786 39.328V40C116.381 39.9787 115.773 39.9573 114.962 39.936C114.151 39.8933 113.319 39.872 112.466 39.872C111.591 39.872 110.706 39.8933 109.81 39.936C108.935 39.9573 108.274 39.9787 107.826 40V39.328C108.53 39.328 109.021 39.168 109.298 38.848C109.597 38.528 109.746 37.92 109.746 37.024V18.816C109.746 17.856 109.607 17.152 109.33 16.704C109.074 16.2347 108.573 16 107.826 16V15.328C108.509 15.392 109.17 15.424 109.81 15.424C110.791 15.424 111.709 15.392 112.562 15.328C113.415 15.2427 114.205 15.1253 114.93 14.976ZM125.49 23.424V24.064C124.765 24.2347 124.039 24.5653 123.314 25.056C122.589 25.5253 121.853 26.1333 121.106 26.88L119.314 28.704L119.57 28.192L124.882 37.664C125.095 38.0267 125.309 38.3573 125.522 38.656C125.757 38.9547 126.034 39.1787 126.354 39.328V40C126.034 39.9787 125.522 39.9573 124.818 39.936C124.135 39.8933 123.442 39.872 122.738 39.872C121.927 39.872 121.106 39.8933 120.274 39.936C119.463 39.9573 118.845 39.9787 118.418 40V39.328C118.845 39.328 119.133 39.232 119.282 39.04C119.431 38.848 119.41 38.5813 119.218 38.24L116.242 32.416C116.05 32.0533 115.837 31.8187 115.602 31.712C115.389 31.6053 115.122 31.552 114.802 31.552V30.944C115.165 30.9227 115.485 30.8693 115.762 30.784C116.061 30.6987 116.338 30.5387 116.594 30.304L119.026 27.968C119.773 27.264 120.146 26.6347 120.146 26.08C120.167 25.504 119.933 25.0347 119.442 24.672C118.973 24.3093 118.365 24.1067 117.618 24.064V23.424C118.215 23.4453 118.866 23.4667 119.57 23.488C120.295 23.5093 120.914 23.52 121.426 23.52C121.853 23.52 122.322 23.52 122.834 23.52C123.367 23.4987 123.869 23.488 124.338 23.488C124.829 23.4667 125.213 23.4453 125.49 23.424ZM131.368 15.072C132.37 15.072 133.149 15.296 133.704 15.744C134.28 16.192 134.568 16.8427 134.568 17.696C134.568 18.5493 134.28 19.2 133.704 19.648C133.149 20.096 132.37 20.32 131.368 20.32C130.365 20.32 129.576 20.096 129 19.648C128.445 19.2 128.168 18.5493 128.168 17.696C128.168 16.8427 128.445 16.192 129 15.744C129.576 15.296 130.365 15.072 131.368 15.072ZM134.184 23.072V37.024C134.184 37.92 134.322 38.528 134.6 38.848C134.898 39.168 135.4 39.328 136.104 39.328V40C135.677 39.9787 135.048 39.9573 134.216 39.936C133.384 39.8933 132.541 39.872 131.688 39.872C130.834 39.872 129.96 39.8933 129.064 39.936C128.189 39.9573 127.528 39.9787 127.08 40V39.328C127.784 39.328 128.274 39.168 128.552 38.848C128.85 38.528 129 37.92 129 37.024V26.912C129 25.952 128.861 25.248 128.584 24.8C128.306 24.3307 127.805 24.096 127.08 24.096V23.424C127.762 23.488 128.424 23.52 129.064 23.52C130.024 23.52 130.93 23.488 131.784 23.424C132.658 23.3387 133.458 23.2213 134.184 23.072ZM149.68 22.976C150.618 22.976 151.365 23.0933 151.92 23.328C152.496 23.5627 152.933 23.8613 153.232 24.224C153.573 24.6293 153.818 25.152 153.968 25.792C154.138 26.432 154.224 27.296 154.224 28.384V37.024C154.224 37.92 154.362 38.528 154.64 38.848C154.938 39.168 155.44 39.328 156.144 39.328V40C155.717 39.9787 155.077 39.9573 154.224 39.936C153.392 39.8933 152.581 39.872 151.792 39.872C150.917 39.872 150.074 39.8933 149.264 39.936C148.453 39.9573 147.845 39.9787 147.44 40V39.328C148.037 39.328 148.453 39.168 148.688 38.848C148.922 38.528 149.04 37.92 149.04 37.024V26.848C149.04 26.3573 148.986 25.9413 148.88 25.6C148.773 25.2373 148.592 24.9707 148.336 24.8C148.08 24.608 147.717 24.512 147.248 24.512C146.757 24.512 146.298 24.64 145.872 24.896C145.466 25.152 145.136 25.5147 144.88 25.984C144.645 26.432 144.528 26.944 144.528 27.52V37.024C144.528 37.92 144.645 38.528 144.88 38.848C145.114 39.168 145.53 39.328 146.128 39.328V40C145.722 39.9787 145.136 39.9573 144.368 39.936C143.6 39.8933 142.821 39.872 142.032 39.872C141.157 39.872 140.282 39.8933 139.408 39.936C138.533 39.9573 137.872 39.9787 137.424 40V39.328C138.128 39.328 138.618 39.168 138.896 38.848C139.194 38.528 139.344 37.92 139.344 37.024V26.912C139.344 25.952 139.205 25.248 138.928 24.8C138.65 24.3307 138.149 24.096 137.424 24.096V23.424C138.106 23.488 138.768 23.52 139.408 23.52C140.368 23.52 141.274 23.488 142.128 23.424C143.002 23.3387 143.802 23.2213 144.528 23.072V25.664C145.04 24.6827 145.733 23.9893 146.608 23.584C147.504 23.1787 148.528 22.976 149.68 22.976ZM173.332 14.976V36.48C173.332 37.44 173.471 38.1547 173.748 38.624C174.047 39.072 174.548 39.296 175.252 39.296V39.968C174.591 39.904 173.929 39.872 173.268 39.872C172.308 39.872 171.401 39.904 170.548 39.968C169.695 40.032 168.895 40.1493 168.148 40.32V18.816C168.148 17.856 168.009 17.152 167.732 16.704C167.476 16.2347 166.975 16 166.228 16V15.328C166.911 15.392 167.572 15.424 168.212 15.424C169.193 15.424 170.111 15.392 170.964 15.328C171.817 15.2427 172.607 15.1253 173.332 14.976ZM164.724 22.976C165.663 22.976 166.473 23.1147 167.156 23.392C167.839 23.648 168.404 24.0853 168.852 24.704L168.468 25.024C168.191 24.6613 167.849 24.3947 167.444 24.224C167.06 24.0533 166.655 23.968 166.228 23.968C165.204 23.968 164.404 24.608 163.828 25.888C163.273 27.1467 162.996 29.088 162.996 31.712C162.996 33.5467 163.103 34.9973 163.316 36.064C163.551 37.1093 163.86 37.8453 164.244 38.272C164.649 38.6987 165.097 38.912 165.588 38.912C166.249 38.912 166.836 38.6667 167.348 38.176C167.881 37.664 168.159 36.992 168.18 36.16L168.276 37.504C167.892 38.4853 167.359 39.2213 166.676 39.712C166.015 40.2027 165.161 40.448 164.116 40.448C162.879 40.448 161.759 40.1387 160.756 39.52C159.775 38.9013 158.996 37.952 158.42 36.672C157.865 35.3707 157.588 33.6853 157.588 31.616C157.588 29.6747 157.887 28.0747 158.484 26.816C159.103 25.536 159.945 24.576 161.012 23.936C162.1 23.296 163.337 22.976 164.724 22.976Z" fill="#41261D"/>
</svg>
